<mxfile host="app.diagrams.net" modified="2021-09-13T13:41:55.869Z" agent="5.0 (Windows NT 10.0; Win64; x64) AppleWebKit/537.36 (KHTML, like Gecko) Chrome/93.0.4577.63 Safari/537.36" etag="gwEVIgY13eHbUlQ72nsv" version="15.1.4" type="github">
  <diagram id="R2lEEEUBdFMjLlhIrx00" name="Page-1">
    <mxGraphModel dx="2062" dy="1122" grid="0" gridSize="10" guides="1" tooltips="1" connect="1" arrows="1" fold="1" page="1" pageScale="1" pageWidth="850" pageHeight="1100" math="0" shadow="0" extFonts="Permanent Marker^https://fonts.googleapis.com/css?family=Permanent+Marker">
      <root>
        <mxCell id="0" />
        <mxCell id="1" parent="0" />
        <mxCell id="JKvDKRSyKJHsCP8iB2jK-13" value="users" style="rounded=0;whiteSpace=wrap;html=1;labelBackgroundColor=none;fillColor=#f5f5f5;strokeColor=#666666;fontColor=#333333;" parent="1" vertex="1">
          <mxGeometry x="160" y="80" width="120" height="20" as="geometry" />
        </mxCell>
        <mxCell id="JKvDKRSyKJHsCP8iB2jK-14" value="id&lt;br&gt;name&lt;br&gt;email&lt;br&gt;email_verified_at&lt;br&gt;password&lt;br&gt;remember_token&lt;br&gt;created_at&lt;br&gt;updated_at" style="rounded=0;whiteSpace=wrap;html=1;align=left;" parent="1" vertex="1">
          <mxGeometry x="180" y="100" width="100" height="120" as="geometry" />
        </mxCell>
        <mxCell id="JKvDKRSyKJHsCP8iB2jK-15" value="PK&lt;br&gt;&lt;br&gt;&lt;br&gt;&lt;br&gt;&lt;br&gt;&lt;br&gt;&lt;br&gt;&lt;br&gt;" style="rounded=0;whiteSpace=wrap;html=1;align=left;" parent="1" vertex="1">
          <mxGeometry x="160" y="100" width="20" height="120" as="geometry" />
        </mxCell>
        <mxCell id="JKvDKRSyKJHsCP8iB2jK-16" value="&lt;div&gt;&lt;span&gt;articles&lt;/span&gt;&lt;/div&gt;" style="rounded=0;whiteSpace=wrap;html=1;align=center;labelBackgroundColor=none;fillColor=#f5f5f5;strokeColor=#666666;fontColor=#333333;" parent="1" vertex="1">
          <mxGeometry x="360" y="80" width="120" height="20" as="geometry" />
        </mxCell>
        <mxCell id="JKvDKRSyKJHsCP8iB2jK-17" value="PK&lt;br&gt;&lt;br&gt;&lt;br&gt;&lt;br&gt;FK&lt;br&gt;&lt;br&gt;&lt;br&gt;&lt;br&gt;" style="rounded=0;whiteSpace=wrap;html=1;align=left;verticalAlign=middle;" parent="1" vertex="1">
          <mxGeometry x="360" y="100" width="20" height="120" as="geometry" />
        </mxCell>
        <mxCell id="JKvDKRSyKJHsCP8iB2jK-18" value="id&lt;br&gt;image&lt;br&gt;title&lt;br&gt;body&lt;br&gt;user_id&lt;br&gt;created_at&lt;br&gt;updated_at&lt;br&gt;&lt;br&gt;" style="rounded=0;whiteSpace=wrap;html=1;align=left;" parent="1" vertex="1">
          <mxGeometry x="380" y="100" width="100" height="120" as="geometry" />
        </mxCell>
        <mxCell id="JKvDKRSyKJHsCP8iB2jK-19" value="article_tag" style="rounded=0;whiteSpace=wrap;html=1;align=center;labelBackgroundColor=none;fillColor=#f5f5f5;strokeColor=#666666;fontColor=#333333;" parent="1" vertex="1">
          <mxGeometry x="560" y="80" width="120" height="20" as="geometry" />
        </mxCell>
        <mxCell id="JKvDKRSyKJHsCP8iB2jK-21" value="tags" style="rounded=0;whiteSpace=wrap;html=1;align=center;labelBackgroundColor=none;fillColor=#f5f5f5;strokeColor=#666666;fontColor=#333333;" parent="1" vertex="1">
          <mxGeometry x="560" y="280" width="120" height="20" as="geometry" />
        </mxCell>
        <mxCell id="JKvDKRSyKJHsCP8iB2jK-22" value="comments" style="rounded=0;whiteSpace=wrap;html=1;align=center;labelBackgroundColor=none;fillColor=#f5f5f5;strokeColor=#666666;fontColor=#333333;" parent="1" vertex="1">
          <mxGeometry x="360" y="280" width="120" height="20" as="geometry" />
        </mxCell>
        <mxCell id="JKvDKRSyKJHsCP8iB2jK-23" value="PK&lt;br&gt;FK&lt;br&gt;FK&lt;br&gt;&lt;br&gt;&lt;br&gt;&lt;br&gt;&lt;br&gt;&lt;br&gt;" style="rounded=0;whiteSpace=wrap;html=1;align=left;" parent="1" vertex="1">
          <mxGeometry x="560" y="100" width="20" height="120" as="geometry" />
        </mxCell>
        <mxCell id="JKvDKRSyKJHsCP8iB2jK-24" value="PK&lt;br&gt;&lt;br&gt;FK&lt;br&gt;FK&lt;br&gt;&lt;br&gt;&lt;br&gt;&lt;br&gt;&lt;br&gt;" style="rounded=0;whiteSpace=wrap;html=1;align=left;verticalAlign=middle;" parent="1" vertex="1">
          <mxGeometry x="360" y="300" width="20" height="120" as="geometry" />
        </mxCell>
        <mxCell id="JKvDKRSyKJHsCP8iB2jK-25" value="PK&lt;br&gt;&lt;br&gt;&lt;br&gt;&lt;br&gt;&lt;br&gt;&lt;br&gt;&lt;br&gt;&lt;br&gt;" style="rounded=0;whiteSpace=wrap;html=1;align=left;verticalAlign=middle;" parent="1" vertex="1">
          <mxGeometry x="560" y="300" width="20" height="120" as="geometry" />
        </mxCell>
        <mxCell id="JKvDKRSyKJHsCP8iB2jK-26" value="id&lt;br&gt;article_id&lt;br&gt;tag_id&lt;br&gt;created_at&lt;br&gt;updated_at&lt;br&gt;&lt;br&gt;&lt;br&gt;&lt;br&gt;" style="rounded=0;whiteSpace=wrap;html=1;align=left;verticalAlign=middle;" parent="1" vertex="1">
          <mxGeometry x="580" y="100" width="100" height="120" as="geometry" />
        </mxCell>
        <mxCell id="JKvDKRSyKJHsCP8iB2jK-27" value="id&lt;br&gt;body&lt;br&gt;user_id&lt;br&gt;article_id&lt;br&gt;created_at&lt;br&gt;updated_at&lt;br&gt;&lt;br&gt;&lt;br&gt;" style="rounded=0;whiteSpace=wrap;html=1;align=left;verticalAlign=middle;" parent="1" vertex="1">
          <mxGeometry x="380" y="300" width="100" height="120" as="geometry" />
        </mxCell>
        <mxCell id="JKvDKRSyKJHsCP8iB2jK-28" value="id&lt;br&gt;name&lt;br&gt;created_at&lt;br&gt;updated_at&lt;br&gt;&lt;br&gt;&lt;br&gt;&lt;br&gt;&lt;br&gt;" style="rounded=0;whiteSpace=wrap;html=1;align=left;verticalAlign=middle;" parent="1" vertex="1">
          <mxGeometry x="580" y="300" width="100" height="120" as="geometry" />
        </mxCell>
        <mxCell id="JKvDKRSyKJHsCP8iB2jK-29" value="" style="endArrow=none;html=1;exitX=1.002;exitY=0.084;exitDx=0;exitDy=0;exitPerimeter=0;entryX=-0.002;entryY=0.543;entryDx=0;entryDy=0;entryPerimeter=0;" parent="1" source="JKvDKRSyKJHsCP8iB2jK-14" target="JKvDKRSyKJHsCP8iB2jK-17" edge="1">
          <mxGeometry width="50" height="50" relative="1" as="geometry">
            <mxPoint x="290" y="120" as="sourcePoint" />
            <mxPoint x="360" y="166" as="targetPoint" />
            <Array as="points">
              <mxPoint x="300" y="110" />
              <mxPoint x="340" y="165" />
            </Array>
          </mxGeometry>
        </mxCell>
        <mxCell id="JKvDKRSyKJHsCP8iB2jK-30" value="" style="endArrow=none;html=1;entryX=0;entryY=0.333;entryDx=0;entryDy=0;entryPerimeter=0;exitX=1;exitY=0.083;exitDx=0;exitDy=0;exitPerimeter=0;" parent="1" source="JKvDKRSyKJHsCP8iB2jK-14" target="JKvDKRSyKJHsCP8iB2jK-24" edge="1">
          <mxGeometry width="50" height="50" relative="1" as="geometry">
            <mxPoint x="290" y="110" as="sourcePoint" />
            <mxPoint x="340" y="340" as="targetPoint" />
            <Array as="points">
              <mxPoint x="300" y="110" />
              <mxPoint x="340" y="340" />
            </Array>
          </mxGeometry>
        </mxCell>
        <mxCell id="JKvDKRSyKJHsCP8iB2jK-31" value="" style="endArrow=none;html=1;exitX=1;exitY=0.083;exitDx=0;exitDy=0;exitPerimeter=0;entryX=0.002;entryY=0.211;entryDx=0;entryDy=0;entryPerimeter=0;" parent="1" source="JKvDKRSyKJHsCP8iB2jK-18" target="JKvDKRSyKJHsCP8iB2jK-23" edge="1">
          <mxGeometry width="50" height="50" relative="1" as="geometry">
            <mxPoint x="520" y="280" as="sourcePoint" />
            <mxPoint x="550" y="120" as="targetPoint" />
            <Array as="points">
              <mxPoint x="500" y="110" />
              <mxPoint x="540" y="125" />
            </Array>
          </mxGeometry>
        </mxCell>
        <mxCell id="JKvDKRSyKJHsCP8iB2jK-32" value="" style="endArrow=none;html=1;entryX=1;entryY=0.333;entryDx=0;entryDy=0;entryPerimeter=0;" parent="1" target="JKvDKRSyKJHsCP8iB2jK-26" edge="1">
          <mxGeometry width="50" height="50" relative="1" as="geometry">
            <mxPoint x="680" y="310" as="sourcePoint" />
            <mxPoint x="690" y="150" as="targetPoint" />
            <Array as="points">
              <mxPoint x="700" y="310" />
              <mxPoint x="700" y="140" />
            </Array>
          </mxGeometry>
        </mxCell>
        <mxCell id="JKvDKRSyKJHsCP8iB2jK-34" value="" style="endArrow=none;html=1;" parent="1" edge="1">
          <mxGeometry width="50" height="50" relative="1" as="geometry">
            <mxPoint x="290" y="115" as="sourcePoint" />
            <mxPoint x="290" y="105" as="targetPoint" />
            <Array as="points">
              <mxPoint x="290" y="115" />
            </Array>
          </mxGeometry>
        </mxCell>
        <mxCell id="JKvDKRSyKJHsCP8iB2jK-35" value="" style="endArrow=none;html=1;" parent="1" edge="1">
          <mxGeometry width="50" height="50" relative="1" as="geometry">
            <mxPoint x="490" y="115" as="sourcePoint" />
            <mxPoint x="490" y="105" as="targetPoint" />
            <Array as="points">
              <mxPoint x="490" y="115" />
            </Array>
          </mxGeometry>
        </mxCell>
        <mxCell id="JKvDKRSyKJHsCP8iB2jK-36" value="" style="endArrow=none;html=1;" parent="1" edge="1">
          <mxGeometry width="50" height="50" relative="1" as="geometry">
            <mxPoint x="690" y="315" as="sourcePoint" />
            <mxPoint x="690" y="305" as="targetPoint" />
            <Array as="points">
              <mxPoint x="690" y="315" />
            </Array>
          </mxGeometry>
        </mxCell>
        <mxCell id="JKvDKRSyKJHsCP8iB2jK-37" value="" style="ellipse;whiteSpace=wrap;html=1;aspect=fixed;align=left;" parent="1" vertex="1">
          <mxGeometry x="340" y="160" width="10" height="10" as="geometry" />
        </mxCell>
        <mxCell id="JKvDKRSyKJHsCP8iB2jK-38" value="" style="endArrow=none;html=1;entryX=0;entryY=0.5;entryDx=0;entryDy=0;" parent="1" target="JKvDKRSyKJHsCP8iB2jK-17" edge="1">
          <mxGeometry width="50" height="50" relative="1" as="geometry">
            <mxPoint x="350" y="165" as="sourcePoint" />
            <mxPoint x="360" y="165" as="targetPoint" />
          </mxGeometry>
        </mxCell>
        <mxCell id="JKvDKRSyKJHsCP8iB2jK-40" value="" style="endArrow=none;html=1;exitX=0;exitY=0.583;exitDx=0;exitDy=0;exitPerimeter=0;" parent="1" source="JKvDKRSyKJHsCP8iB2jK-17" edge="1">
          <mxGeometry width="50" height="50" relative="1" as="geometry">
            <mxPoint x="330" y="180" as="sourcePoint" />
            <mxPoint x="350" y="165" as="targetPoint" />
          </mxGeometry>
        </mxCell>
        <mxCell id="JKvDKRSyKJHsCP8iB2jK-42" value="" style="ellipse;whiteSpace=wrap;html=1;aspect=fixed;align=left;" parent="1" vertex="1">
          <mxGeometry x="540" y="120" width="10" height="10" as="geometry" />
        </mxCell>
        <mxCell id="JKvDKRSyKJHsCP8iB2jK-43" value="" style="endArrow=none;html=1;entryX=0;entryY=0.5;entryDx=0;entryDy=0;" parent="1" edge="1">
          <mxGeometry width="50" height="50" relative="1" as="geometry">
            <mxPoint x="550" y="125" as="sourcePoint" />
            <mxPoint x="560" y="120" as="targetPoint" />
          </mxGeometry>
        </mxCell>
        <mxCell id="JKvDKRSyKJHsCP8iB2jK-44" value="" style="endArrow=none;html=1;exitX=0;exitY=0.583;exitDx=0;exitDy=0;exitPerimeter=0;" parent="1" edge="1">
          <mxGeometry width="50" height="50" relative="1" as="geometry">
            <mxPoint x="560" y="129.95999999999998" as="sourcePoint" />
            <mxPoint x="550" y="125" as="targetPoint" />
          </mxGeometry>
        </mxCell>
        <mxCell id="JKvDKRSyKJHsCP8iB2jK-45" value="" style="ellipse;whiteSpace=wrap;html=1;aspect=fixed;align=left;" parent="1" vertex="1">
          <mxGeometry x="340" y="335" width="10" height="10" as="geometry" />
        </mxCell>
        <mxCell id="JKvDKRSyKJHsCP8iB2jK-46" value="" style="endArrow=none;html=1;entryX=0;entryY=0.5;entryDx=0;entryDy=0;" parent="1" edge="1">
          <mxGeometry width="50" height="50" relative="1" as="geometry">
            <mxPoint x="350" y="340" as="sourcePoint" />
            <mxPoint x="360" y="335" as="targetPoint" />
            <Array as="points">
              <mxPoint x="350" y="340" />
            </Array>
          </mxGeometry>
        </mxCell>
        <mxCell id="JKvDKRSyKJHsCP8iB2jK-47" value="" style="endArrow=none;html=1;exitX=0;exitY=0.583;exitDx=0;exitDy=0;exitPerimeter=0;" parent="1" edge="1">
          <mxGeometry width="50" height="50" relative="1" as="geometry">
            <mxPoint x="360" y="344.96" as="sourcePoint" />
            <mxPoint x="350" y="340" as="targetPoint" />
          </mxGeometry>
        </mxCell>
        <mxCell id="JKvDKRSyKJHsCP8iB2jK-48" value="" style="ellipse;whiteSpace=wrap;html=1;aspect=fixed;align=left;" parent="1" vertex="1">
          <mxGeometry x="690" y="135" width="10" height="10" as="geometry" />
        </mxCell>
        <mxCell id="JKvDKRSyKJHsCP8iB2jK-49" value="" style="endArrow=none;html=1;entryX=0;entryY=0.5;entryDx=0;entryDy=0;" parent="1" edge="1">
          <mxGeometry width="50" height="50" relative="1" as="geometry">
            <mxPoint x="680" y="145" as="sourcePoint" />
            <mxPoint x="690" y="140" as="targetPoint" />
          </mxGeometry>
        </mxCell>
        <mxCell id="JKvDKRSyKJHsCP8iB2jK-50" value="" style="endArrow=none;html=1;exitX=0;exitY=0.583;exitDx=0;exitDy=0;exitPerimeter=0;" parent="1" edge="1">
          <mxGeometry width="50" height="50" relative="1" as="geometry">
            <mxPoint x="690" y="139.95999999999998" as="sourcePoint" />
            <mxPoint x="680" y="135" as="targetPoint" />
          </mxGeometry>
        </mxCell>
        <mxCell id="JKvDKRSyKJHsCP8iB2jK-51" value="" style="endArrow=none;html=1;exitX=1;exitY=0.5;exitDx=0;exitDy=0;" parent="1" edge="1">
          <mxGeometry width="50" height="50" relative="1" as="geometry">
            <mxPoint x="480" y="355" as="sourcePoint" />
            <mxPoint x="480" y="110" as="targetPoint" />
            <Array as="points">
              <mxPoint x="500" y="355" />
              <mxPoint x="500" y="110" />
            </Array>
          </mxGeometry>
        </mxCell>
        <mxCell id="JKvDKRSyKJHsCP8iB2jK-52" value="" style="ellipse;whiteSpace=wrap;html=1;aspect=fixed;align=left;" parent="1" vertex="1">
          <mxGeometry x="490" y="350" width="10" height="10" as="geometry" />
        </mxCell>
        <mxCell id="JKvDKRSyKJHsCP8iB2jK-53" value="" style="endArrow=none;html=1;entryX=0;entryY=0.5;entryDx=0;entryDy=0;" parent="1" edge="1">
          <mxGeometry width="50" height="50" relative="1" as="geometry">
            <mxPoint x="480" y="360" as="sourcePoint" />
            <mxPoint x="490" y="355" as="targetPoint" />
          </mxGeometry>
        </mxCell>
        <mxCell id="JKvDKRSyKJHsCP8iB2jK-54" value="" style="endArrow=none;html=1;exitX=0;exitY=0.583;exitDx=0;exitDy=0;exitPerimeter=0;" parent="1" edge="1">
          <mxGeometry width="50" height="50" relative="1" as="geometry">
            <mxPoint x="490" y="354.96000000000004" as="sourcePoint" />
            <mxPoint x="480" y="350" as="targetPoint" />
          </mxGeometry>
        </mxCell>
      </root>
    </mxGraphModel>
  </diagram>
</mxfile>
